<svg xmlns="http://www.w3.org/2000/svg" width="24" height="24" viewBox="0 0 24 24"><g fill="none" fill-rule="evenodd"><path d="M0 0h24v24H0z"/><path fill="#EAEAEA" d="M12 2v20C6.477 22 2 17.523 2 12S6.477 2 12 2z"/><path stroke="#999" stroke-linecap="round" stroke-linejoin="round" d="M19.144 19a9.97 9.97 0 0 1-7.142 3 9.97 9.97 0 0 1-7.141-3M4.86 5a9.97 9.97 0 0 1 7.142-3 9.97 9.97 0 0 1 7.142 3"/><path d="M7.135 14.44c.214.145.446.285.699.421.253.136.42.244.502.325.082.08.123.194.123.342 0 .105-.049.21-.145.315a.461.461 0 0 1-.352.157c-.112 0-.247-.036-.406-.108a4.576 4.576 0 0 1-.56-.315 16.62 16.62 0 0 1-.707-.482c-.476.242-1.06.364-1.751.364-.561 0-1.064-.09-1.508-.268a2.966 2.966 0 0 1-1.12-.773 3.33 3.33 0 0 1-.681-1.198A4.797 4.797 0 0 1 1 11.71c0-.555.08-1.063.239-1.525.159-.463.39-.857.69-1.181a2.99 2.99 0 0 1 1.103-.746A3.968 3.968 0 0 1 4.508 8c.748 0 1.39.152 1.926.455A2.95 2.95 0 0 1 7.652 9.75c.275.56.413 1.216.413 1.97 0 1.145-.31 2.052-.93 2.721zm-1.146-.797a2.23 2.23 0 0 0 .45-.826c.097-.318.145-.687.145-1.107 0-.528-.085-.986-.256-1.373-.17-.387-.414-.68-.73-.878a2.008 2.008 0 0 0-1.09-.298c-.292 0-.562.055-.81.165-.247.11-.46.27-.639.48-.179.21-.32.478-.423.804a3.635 3.635 0 0 0-.155 1.1c0 .83.193 1.468.58 1.916.388.448.876.672 1.467.672.242 0 .492-.051.748-.153a3.813 3.813 0 0 0-.579-.344 3.705 3.705 0 0 1-.474-.266.31.31 0 0 1-.128-.266.34.34 0 0 1 .123-.26.391.391 0 0 1 .27-.114c.299 0 .799.25 1.5.748zm4.365-3.337c0-.241.063-.46.189-.659.125-.198.31-.355.553-.472a1.97 1.97 0 0 1 .86-.175c.326 0 .608.06.847.183.238.121.416.28.534.478.118.197.177.401.177.614 0 .29-.096.543-.288.758-.191.215-.474.434-.847.657.13.153.25.296.362.431.11.135.218.26.322.377.104.117.198.216.284.3.039-.073.099-.21.18-.409.082-.2.159-.343.23-.431a.365.365 0 0 1 .301-.132.46.46 0 0 1 .323.13c.093.087.14.192.14.317 0 .114-.04.275-.12.484-.081.208-.198.44-.35.693.095.083.247.209.456.377.209.169.337.283.385.344a.382.382 0 0 1 .072.243.45.45 0 0 1-.146.34.461.461 0 0 1-.325.138.62.62 0 0 1-.353-.116 14.079 14.079 0 0 1-.727-.572 2.692 2.692 0 0 1-.523.39c-.18.1-.373.175-.579.224-.206.05-.436.074-.69.074-.324 0-.615-.047-.872-.142a1.862 1.862 0 0 1-.644-.382 1.576 1.576 0 0 1-.38-.535 1.516 1.516 0 0 1-.125-.596c0-.195.031-.373.093-.535.062-.162.15-.308.263-.44.112-.13.251-.254.416-.372.164-.118.355-.233.573-.344a4.224 4.224 0 0 1-.441-.651c-.1-.19-.15-.387-.15-.589zm1.1 1.862c-.264.153-.462.305-.593.458a.81.81 0 0 0-.196.545.84.84 0 0 0 .072.342 1.013 1.013 0 0 0 .53.516c.122.05.25.074.385.074.132 0 .26-.02.385-.062.124-.041.242-.1.354-.177a2.79 2.79 0 0 0 .346-.285 8.582 8.582 0 0 1-.622-.632 31.794 31.794 0 0 1-.661-.78zm.396-1.065c.265-.169.456-.31.574-.426a.563.563 0 0 0 .177-.418.528.528 0 0 0-.177-.404.63.63 0 0 0-.445-.163.636.636 0 0 0-.45.167.519.519 0 0 0-.18.393c0 .077.023.16.068.25.045.09.102.178.17.266.067.089.155.2.263.335zm9.474 3.889l-.37-.97H17.81l-.369.991c-.144.387-.267.648-.37.784-.101.135-.268.203-.5.203a.735.735 0 0 1-.523-.216.663.663 0 0 1-.227-.491c0-.106.018-.215.053-.327.035-.113.093-.27.174-.47l1.979-5.024.203-.52c.08-.202.164-.37.253-.503.09-.134.208-.242.354-.325.146-.083.326-.124.54-.124.219 0 .4.041.547.124.146.083.264.19.353.32.09.13.166.27.227.419.062.15.14.349.235.599l2.021 4.992c.159.38.238.656.238.828 0 .18-.075.344-.224.494a.737.737 0 0 1-.541.224.648.648 0 0 1-.538-.245 1.65 1.65 0 0 1-.193-.349 20.408 20.408 0 0 1-.177-.414zm-3.103-2.148h2.311l-1.166-3.192-1.145 3.192z" fill="#999"/></g></svg>