<?xml version="1.0" standalone="no"?>
<!DOCTYPE svg PUBLIC "-//W3C//DTD SVG 20010904//EN"
 "http://www.w3.org/TR/2001/REC-SVG-20010904/DTD/svg10.dtd">
<svg version="1.0" xmlns="http://www.w3.org/2000/svg"
 width="4126.000000pt" height="4126.000000pt" viewBox="0 0 4126.000000 4126.000000"
 preserveAspectRatio="xMidYMid meet">
<metadata>
Created by potrace 1.14, written by Peter Selinger 2001-2017
</metadata>
<g transform="translate(0.000000,4126.000000) scale(0.100000,-0.100000)"
fill="#000000" stroke="none">
<path d="M14309 41256 c-2 -2 -56 -7 -119 -10 -63 -4 -133 -8 -155 -11 -22 -2
-67 -7 -100 -10 -111 -12 -150 -16 -176 -21 -15 -2 -47 -6 -70 -9 -24 -3 -71
-10 -104 -15 -33 -5 -78 -12 -100 -16 -36 -5 -191 -35 -255 -48 -14 -3 -38 -8
-55 -12 -172 -35 -544 -138 -735 -205 -63 -22 -122 -41 -131 -43 -8 -2 -33
-12 -55 -21 -21 -9 -59 -23 -84 -32 -156 -54 -614 -265 -827 -382 -192 -105
-280 -158 -508 -310 -299 -198 -500 -352 -780 -600 -107 -95 -6125 -6100
-6125 -6112 0 -2 6631 -4 14735 -3 l14735 1 0 -14736 0 -14736 3023 3025
c1663 1664 3051 3057 3085 3095 33 39 73 84 87 100 56 64 294 364 356 450 138
190 330 489 421 655 20 36 50 90 67 120 72 129 210 417 278 580 19 47 41 99
49 115 30 66 154 418 193 550 23 77 46 154 51 170 29 93 107 423 135 575 4 24
18 103 21 125 2 11 7 47 13 80 5 33 12 82 16 109 3 27 8 52 9 55 2 3 7 41 10
83 4 42 9 86 11 96 2 10 6 59 10 108 4 49 10 105 13 124 3 19 7 6129 9 13578
l3 13542 -13473 0 c-7411 0 -13476 -2 -13478 -4z"/>
<path d="M3869 29466 c-2 -2 -44 -7 -94 -11 -49 -3 -101 -8 -115 -10 -14 -2
-47 -6 -75 -10 -99 -12 -122 -16 -270 -45 -82 -17 -199 -44 -260 -61 -60 -16
-117 -32 -125 -34 -27 -6 -234 -77 -265 -90 -16 -7 -59 -24 -95 -38 -166 -64
-410 -187 -578 -291 -45 -28 -90 -56 -100 -61 -44 -26 -223 -152 -269 -189
-10 -8 -70 -56 -133 -107 -120 -98 -383 -354 -486 -474 -282 -331 -519 -710
-674 -1080 -23 -55 -47 -113 -54 -130 -56 -128 -168 -509 -191 -648 -3 -18
-12 -63 -20 -102 -7 -38 -16 -88 -19 -110 -17 -135 -26 -205 -33 -245 -4 -25
-9 -5824 -10 -12888 l-3 -12842 12852 3 c7069 2 12871 6 12893 10 22 3 60 9
85 12 122 15 165 22 235 35 28 5 66 12 85 15 19 4 55 11 80 16 25 6 52 12 61
14 102 21 442 125 524 160 17 7 66 27 110 45 133 53 400 187 534 268 152 92
395 260 457 317 7 5 31 26 55 45 248 198 546 519 745 800 283 401 493 851 619
1325 19 72 36 141 39 155 3 14 8 36 11 50 13 60 54 311 60 370 3 36 8 81 10
100 2 19 7 82 11 140 5 76 9 25290 5 25553 l-1 37 -12798 0 c-7039 0 -12801
-2 -12803 -4z"/>
</g>
</svg>
